<svg width="33" height="32" viewBox="0 0 33 32" fill="none" xmlns="http://www.w3.org/2000/svg">
<path d="M4.125 2C3.57799 2 3.05339 2.21071 2.66659 2.58579C2.2798 2.96086 2.0625 3.46957 2.0625 4V20C2.0625 20.5304 2.2798 21.0391 2.66659 21.4142C3.05339 21.7893 3.57799 22 4.125 22H23.8961C24.9901 22.0002 26.0391 22.4218 26.8125 23.172L30.9375 27.172V4C30.9375 3.46957 30.7202 2.96086 30.3334 2.58579C29.9466 2.21071 29.422 2 28.875 2H4.125ZM28.875 0C29.969 0 31.0182 0.421427 31.7918 1.17157C32.5654 1.92172 33 2.93913 33 4V29.586C33 29.7839 32.9394 29.9773 32.8259 30.1418C32.7125 30.3062 32.5513 30.4344 32.3627 30.51C32.1741 30.5855 31.9666 30.6052 31.7666 30.5664C31.5665 30.5276 31.3827 30.4321 31.2386 30.292L25.3543 24.586C24.9676 24.2109 24.4431 24.0001 23.8961 24H4.125C3.03098 24 1.98177 23.5786 1.20818 22.8284C0.434597 22.0783 0 21.0609 0 20V4C0 2.93913 0.434597 1.92172 1.20818 1.17157C1.98177 0.421427 3.03098 0 4.125 0L28.875 0Z" fill="#734CEB"/>
<path d="M14.5736 9.51996C14.1718 8.91326 13.5779 8.44939 12.8809 8.19808C12.184 7.94677 11.4218 7.92159 10.7089 8.12633C9.99592 8.33107 9.37077 8.75467 8.92736 9.33346C8.48395 9.91225 8.24625 10.615 8.24998 11.336C8.25035 11.933 8.41606 12.5191 8.72981 13.0328C9.04355 13.5465 9.49381 13.9692 10.0335 14.2565C10.5733 14.5438 11.1827 14.6853 11.7981 14.6663C12.4135 14.6472 13.0124 14.4682 13.532 14.148C13.2619 14.926 12.7586 15.756 11.9295 16.588C11.7708 16.7471 11.6839 16.9608 11.6878 17.1821C11.6916 17.4034 11.786 17.6141 11.9501 17.768C12.1142 17.9218 12.3346 18.0061 12.5628 18.0024C12.791 17.9986 13.0083 17.9071 13.167 17.748C16.2319 14.668 15.8338 11.32 14.5736 9.52396V9.51996ZM22.8236 9.51996C22.4218 8.91326 21.8279 8.44939 21.1309 8.19808C20.434 7.94677 19.6718 7.92159 18.9589 8.12633C18.2459 8.33107 17.6208 8.75467 17.1774 9.33346C16.734 9.91225 16.4963 10.615 16.5 11.336C16.5004 11.933 16.6661 12.5191 16.9798 13.0328C17.2935 13.5465 17.7438 13.9692 18.2835 14.2565C18.8233 14.5438 19.4327 14.6853 20.0481 14.6663C20.6635 14.6472 21.2624 14.4682 21.782 14.148C21.5119 14.926 21.0086 15.756 20.1795 16.588C20.0209 16.7471 19.9339 16.9608 19.9378 17.1821C19.9416 17.4034 20.036 17.6141 20.2001 17.768C20.3642 17.9218 20.5846 18.0061 20.8128 18.0024C21.041 17.9986 21.2583 17.9071 21.417 17.748C24.4819 14.668 24.0838 11.32 22.8236 9.52396V9.51996Z" fill="#734CEB"/>
</svg>
