<svg width="39" height="39" viewBox="0 0 39 39" fill="none" xmlns="http://www.w3.org/2000/svg">
<g clip-path="url(#clip0_165_333)">
<path d="M38.4168 19.5602C38.4151 19.7281 38.3642 19.8918 38.2702 20.0309C38.1763 20.1701 38.0436 20.2786 37.8886 20.343L13.1162 30.6908C12.898 30.7819 12.6589 30.811 12.4253 30.775C12.1916 30.7389 11.9724 30.6391 11.7917 30.4865C11.6111 30.3339 11.4761 30.1344 11.4016 29.91C11.327 29.6856 11.3158 29.445 11.3692 29.2147L13.6617 19.3327L11.5513 9.41015C11.5017 9.17863 11.5171 8.93791 11.5957 8.71456C11.6743 8.49122 11.813 8.29392 11.9966 8.14444C12.1803 7.99497 12.4016 7.89913 12.6363 7.86749C12.8709 7.83586 13.1097 7.86966 13.3264 7.96518L37.9018 18.7691C38.0557 18.8363 38.1864 18.9472 38.2777 19.0881C38.369 19.229 38.417 19.3936 38.4156 19.5614L38.4168 19.5602ZM15.2168 20.2024L13.2271 28.7859L33.376 20.3693L15.2168 20.2024ZM33.3918 18.6562L13.4009 9.87063L15.235 18.4892L33.3918 18.6562Z" fill="#808080"/>
</g>
<defs>
<clipPath id="clip0_165_333">
<rect width="27.4162" height="27.4162" fill="white" transform="translate(19.5635) rotate(45.5267)"/>
</clipPath>
</defs>
</svg>
