<svg width="27" height="27" viewBox="0 0 27 27" fill="none" xmlns="http://www.w3.org/2000/svg">
<path fill-rule="evenodd" clip-rule="evenodd" d="M2.53125 2.53125C2.30747 2.53125 2.09286 2.62014 1.93463 2.77838C1.77639 2.93661 1.6875 3.15122 1.6875 3.375V11.475C1.6875 12.029 1.79662 12.5776 2.00863 13.0894C2.22065 13.6013 2.5314 14.0664 2.92314 14.4581C3.71431 15.2493 4.78737 15.6937 5.90625 15.6937H22.4319L16.7839 21.3401C16.6254 21.4986 16.5364 21.7134 16.5364 21.9375C16.5364 22.1616 16.6254 22.3764 16.7839 22.5349C16.9423 22.6933 17.1572 22.7823 17.3813 22.7823C17.6053 22.7823 17.8202 22.6933 17.9786 22.5349L25.0661 15.4474C25.1447 15.369 25.207 15.2759 25.2496 15.1734C25.2921 15.0709 25.314 14.961 25.314 14.85C25.314 14.739 25.2921 14.6291 25.2496 14.5266C25.207 14.4241 25.1447 14.331 25.0661 14.2526L18.3161 7.50262C18.1577 7.34419 17.9428 7.25518 17.7188 7.25518C17.4947 7.25518 17.2798 7.34419 17.1214 7.50262C16.9629 7.66106 16.8739 7.87594 16.8739 8.1C16.8739 8.32406 16.9629 8.53894 17.1214 8.69737L22.4319 14.0062H5.90625C5.23492 14.0062 4.59109 13.7396 4.11639 13.2649C3.64168 12.7902 3.375 12.1463 3.375 11.475V3.375C3.375 3.15122 3.28611 2.93661 3.12787 2.77838C2.96964 2.62014 2.75503 2.53125 2.53125 2.53125Z" fill="#734CEB"/>
</svg>
