<svg width="31" height="31" viewBox="0 0 31 31" fill="none" xmlns="http://www.w3.org/2000/svg">
<g clip-path="url(#clip0_198_243)">
<path d="M3.875 19.375H9.6875C10.2014 19.375 10.6942 19.5791 11.0575 19.9425C11.4209 20.3058 11.625 20.7986 11.625 21.3125V27.125C11.625 27.6389 11.4209 28.1317 11.0575 28.495C10.6942 28.8584 10.2014 29.0625 9.6875 29.0625H3.875C3.36114 29.0625 2.86833 28.8584 2.50498 28.495C2.14163 28.1317 1.9375 27.6389 1.9375 27.125V21.3125C1.9375 20.7986 2.14163 20.3058 2.50498 19.9425C2.86833 19.5791 3.36114 19.375 3.875 19.375ZM21.3125 1.9375H27.125C27.6389 1.9375 28.1317 2.14163 28.495 2.50498C28.8584 2.86833 29.0625 3.36114 29.0625 3.875V9.6875C29.0625 10.2014 28.8584 10.6942 28.495 11.0575C28.1317 11.4209 27.6389 11.625 27.125 11.625H21.3125C20.7986 11.625 20.3058 11.4209 19.9425 11.0575C19.5791 10.6942 19.375 10.2014 19.375 9.6875V3.875C19.375 3.36114 19.5791 2.86833 19.9425 2.50498C20.3058 2.14163 20.7986 1.9375 21.3125 1.9375ZM21.3125 19.375C20.7986 19.375 20.3058 19.5791 19.9425 19.9425C19.5791 20.3058 19.375 20.7986 19.375 21.3125V27.125C19.375 27.6389 19.5791 28.1317 19.9425 28.495C20.3058 28.8584 20.7986 29.0625 21.3125 29.0625H27.125C27.6389 29.0625 28.1317 28.8584 28.495 28.495C28.8584 28.1317 29.0625 27.6389 29.0625 27.125V21.3125C29.0625 20.7986 28.8584 20.3058 28.495 19.9425C28.1317 19.5791 27.6389 19.375 27.125 19.375H21.3125ZM21.3125 0C20.2848 0 19.2992 0.408258 18.5725 1.13496C17.8458 1.86166 17.4375 2.84729 17.4375 3.875V9.6875C17.4375 10.7152 17.8458 11.7008 18.5725 12.4275C19.2992 13.1542 20.2848 13.5625 21.3125 13.5625H27.125C28.1527 13.5625 29.1383 13.1542 29.865 12.4275C30.5917 11.7008 31 10.7152 31 9.6875V3.875C31 2.84729 30.5917 1.86166 29.865 1.13496C29.1383 0.408258 28.1527 0 27.125 0L21.3125 0ZM3.875 17.4375C2.84729 17.4375 1.86166 17.8458 1.13496 18.5725C0.408258 19.2992 0 20.2848 0 21.3125L0 27.125C0 28.1527 0.408258 29.1383 1.13496 29.865C1.86166 30.5917 2.84729 31 3.875 31H9.6875C10.7152 31 11.7008 30.5917 12.4275 29.865C13.1542 29.1383 13.5625 28.1527 13.5625 27.125V21.3125C13.5625 20.2848 13.1542 19.2992 12.4275 18.5725C11.7008 17.8458 10.7152 17.4375 9.6875 17.4375H3.875ZM17.4375 21.3125C17.4375 20.2848 17.8458 19.2992 18.5725 18.5725C19.2992 17.8458 20.2848 17.4375 21.3125 17.4375H27.125C28.1527 17.4375 29.1383 17.8458 29.865 18.5725C30.5917 19.2992 31 20.2848 31 21.3125V27.125C31 28.1527 30.5917 29.1383 29.865 29.865C29.1383 30.5917 28.1527 31 27.125 31H21.3125C20.2848 31 19.2992 30.5917 18.5725 29.865C17.8458 29.1383 17.4375 28.1527 17.4375 27.125V21.3125ZM0 3.875C0 2.84729 0.408258 1.86166 1.13496 1.13496C1.86166 0.408258 2.84729 0 3.875 0L9.6875 0C10.7152 0 11.7008 0.408258 12.4275 1.13496C13.1542 1.86166 13.5625 2.84729 13.5625 3.875V9.6875C13.5625 10.7152 13.1542 11.7008 12.4275 12.4275C11.7008 13.1542 10.7152 13.5625 9.6875 13.5625H3.875C2.84729 13.5625 1.86166 13.1542 1.13496 12.4275C0.408258 11.7008 0 10.7152 0 9.6875V3.875ZM10.3734 5.52963C10.4634 5.43956 10.5349 5.33263 10.5836 5.21494C10.6324 5.09726 10.6575 4.97113 10.6575 4.84375C10.6575 4.71637 10.6324 4.59024 10.5836 4.47256C10.5349 4.35487 10.4634 4.24795 10.3734 4.15787C10.2833 4.0678 10.1764 3.99636 10.0587 3.94761C9.94101 3.89887 9.81488 3.87378 9.6875 3.87378C9.56012 3.87378 9.43399 3.89887 9.31631 3.94761C9.19862 3.99636 9.09169 4.0678 9.00162 4.15787L5.8125 7.34894L4.56088 6.09537C4.4708 6.0053 4.36388 5.93386 4.24619 5.88511C4.12851 5.83637 4.00238 5.81128 3.875 5.81128C3.74762 5.81128 3.62149 5.83637 3.50381 5.88511C3.38612 5.93386 3.2792 6.0053 3.18913 6.09537C3.09905 6.18544 3.02761 6.29237 2.97886 6.41006C2.93012 6.52774 2.90503 6.65387 2.90503 6.78125C2.90503 6.90863 2.93012 7.03476 2.97886 7.15244C3.02761 7.27013 3.09905 7.37706 3.18913 7.46713L5.12662 9.40463C5.21661 9.49484 5.32352 9.56642 5.44121 9.61526C5.5589 9.66409 5.68508 9.68923 5.8125 9.68923C5.93992 9.68923 6.0661 9.66409 6.18379 9.61526C6.30148 9.56642 6.40839 9.49484 6.49838 9.40463L10.3734 5.52963Z" fill="#734CEB"/>
</g>
<defs>
<clipPath id="clip0_198_243">
<rect width="31" height="31" fill="white"/>
</clipPath>
</defs>
</svg>
