<svg width="33" height="32" viewBox="0 0 33 32" fill="none" xmlns="http://www.w3.org/2000/svg">
<path d="M12.6923 30.8572V22.8463C12.6923 22.2863 13.3269 21.7149 13.9615 21.7149H19.0385C19.6731 21.7149 20.3077 22.2863 20.3077 22.8577V30.8572C20.3077 31.1603 20.4414 31.451 20.6794 31.6653C20.9175 31.8796 21.2403 32 21.5769 32H31.7308C32.0674 32 32.3902 31.8796 32.6283 31.6653C32.8663 31.451 33 31.1603 33 30.8572V14.8582C33.0003 14.7081 32.9677 14.5593 32.9041 14.4205C32.8405 14.2817 32.7472 14.1555 32.6294 14.0491L29.1923 10.9568V3.4304C29.1923 3.12731 29.0586 2.83664 28.8206 2.62233C28.5825 2.40801 28.2597 2.28761 27.9231 2.28761H25.3846C25.048 2.28761 24.7252 2.40801 24.4871 2.62233C24.2491 2.83664 24.1154 3.12731 24.1154 3.4304V6.38564L17.3986 0.335736C17.2807 0.229312 17.1407 0.144877 16.9865 0.0872658C16.8323 0.0296548 16.6669 0 16.5 0C16.3331 0 16.1677 0.0296548 16.0135 0.0872658C15.8593 0.144877 15.7193 0.229312 15.6014 0.335736L0.370617 14.0491C0.252828 14.1555 0.159468 14.2817 0.0958756 14.4205C0.0322828 14.5593 -0.000295857 14.7081 2.02441e-06 14.8582V30.8572C2.02441e-06 31.1603 0.133724 31.451 0.371751 31.6653C0.609778 31.8796 0.932612 32 1.26923 32H11.4231C11.7597 32 12.0825 31.8796 12.3206 31.6653C12.5586 31.451 12.6923 31.1603 12.6923 30.8572Z" fill="#C8B8FA"/>
</svg>
