<svg width="34" height="33" viewBox="0 0 34 33" fill="none" xmlns="http://www.w3.org/2000/svg">
<path d="M32.9418 4.00108C33.1403 4.19439 33.2518 4.4562 33.2518 4.72915C33.2518 5.00209 33.1403 5.26391 32.9418 5.45721L30.7254 7.61046L26.4754 3.48546L28.6918 1.33221C28.891 1.13888 29.1612 1.03027 29.4429 1.03027C29.7247 1.03027 29.9949 1.13888 30.1941 1.33221L32.9418 3.99902V4.00108ZM29.223 9.06658L24.973 4.94158L10.4954 18.9955C10.3784 19.1089 10.2904 19.2474 10.2383 19.3997L8.52763 24.3786C8.49661 24.4694 8.4922 24.5667 8.51491 24.6598C8.53762 24.7528 8.58654 24.8379 8.65621 24.9055C8.72588 24.9732 8.81356 25.0206 8.90943 25.0427C9.00531 25.0647 9.10561 25.0604 9.19913 25.0303L14.3289 23.37C14.4856 23.32 14.6282 23.2353 14.7454 23.1225L29.223 9.06658Z" fill="#C8B8FA"/>
<path fill-rule="evenodd" clip-rule="evenodd" d="M2.125 27.8438C2.125 28.6643 2.46083 29.4512 3.0586 30.0314C3.65637 30.6116 4.46712 30.9375 5.3125 30.9375H28.6875C29.5329 30.9375 30.3436 30.6116 30.9414 30.0314C31.5392 29.4512 31.875 28.6643 31.875 27.8438V15.4688C31.875 15.1952 31.7631 14.9329 31.5638 14.7395C31.3645 14.5461 31.0943 14.4375 30.8125 14.4375C30.5307 14.4375 30.2605 14.5461 30.0612 14.7395C29.8619 14.9329 29.75 15.1952 29.75 15.4688V27.8438C29.75 28.1173 29.6381 28.3796 29.4388 28.573C29.2395 28.7664 28.9693 28.875 28.6875 28.875H5.3125C5.03071 28.875 4.76046 28.7664 4.5612 28.573C4.36194 28.3796 4.25 28.1173 4.25 27.8438V5.15625C4.25 4.88275 4.36194 4.62044 4.5612 4.42705C4.76046 4.23365 5.03071 4.125 5.3125 4.125H19.125C19.4068 4.125 19.677 4.01635 19.8763 3.82295C20.0756 3.62956 20.1875 3.36725 20.1875 3.09375C20.1875 2.82025 20.0756 2.55794 19.8763 2.36455C19.677 2.17115 19.4068 2.0625 19.125 2.0625H5.3125C4.46712 2.0625 3.65637 2.38845 3.0586 2.96864C2.46083 3.54883 2.125 4.33574 2.125 5.15625V27.8438Z" fill="#C8B8FA"/>
</svg>
