<svg width="17" height="17" viewBox="0 0 17 17" fill="none" xmlns="http://www.w3.org/2000/svg">
<path d="M8.5 0.75C8.75693 0.75 9.00333 0.852065 9.18501 1.03374C9.36669 1.21542 9.46875 1.46182 9.46875 1.71875V7.53125H15.2812C15.5382 7.53125 15.7846 7.63331 15.9663 7.81499C16.1479 7.99667 16.25 8.24307 16.25 8.5C16.25 8.75693 16.1479 9.00333 15.9663 9.18501C15.7846 9.36669 15.5382 9.46875 15.2812 9.46875H9.46875V15.2812C9.46875 15.5382 9.36669 15.7846 9.18501 15.9663C9.00333 16.1479 8.75693 16.25 8.5 16.25C8.24307 16.25 7.99667 16.1479 7.81499 15.9663C7.63331 15.7846 7.53125 15.5382 7.53125 15.2812V9.46875H1.71875C1.46182 9.46875 1.21542 9.36669 1.03374 9.18501C0.852065 9.00333 0.75 8.75693 0.75 8.5C0.75 8.24307 0.852065 7.99667 1.03374 7.81499C1.21542 7.63331 1.46182 7.53125 1.71875 7.53125H7.53125V1.71875C7.53125 1.46182 7.63331 1.21542 7.81499 1.03374C7.99667 0.852065 8.24307 0.75 8.5 0.75Z" fill="#734CEB"/>
</svg>
