<svg width="18" height="18" viewBox="0 0 18 18" fill="none" xmlns="http://www.w3.org/2000/svg">
<g clip-path="url(#clip0_165_303)">
<path d="M13.2097 11.6371C14.299 10.1506 14.7869 8.30766 14.5758 6.47691C14.3646 4.64615 13.47 2.96262 12.0709 1.76313C10.6718 0.563649 8.87141 -0.0633329 7.02988 0.00762436C5.18836 0.0785817 3.44152 0.842246 2.13887 2.14583C0.836212 3.44942 0.0737988 5.1968 0.00415923 7.03838C-0.0654803 8.87995 0.56279 10.6799 1.76328 12.0782C2.96376 13.4764 4.64793 14.3698 6.47884 14.5796C8.30975 14.7895 10.1524 14.3003 11.6381 13.2099H11.6369C11.6699 13.2549 11.7067 13.298 11.7472 13.3392L16.0784 17.6705C16.2894 17.8816 16.5756 18.0002 16.874 18.0003C17.1724 18.0004 17.4587 17.882 17.6698 17.6711C17.8809 17.4601 17.9995 17.1739 17.9996 16.8755C17.9997 16.5771 17.8813 16.2908 17.6703 16.0797L13.3391 11.7485C13.2989 11.7078 13.2556 11.6713 13.2097 11.6371ZM13.4999 7.31261C13.4999 8.12517 13.3399 8.92977 13.0289 9.68047C12.718 10.4312 12.2622 11.1133 11.6877 11.6878C11.1131 12.2624 10.431 12.7182 9.6803 13.0291C8.92959 13.3401 8.125 13.5001 7.31244 13.5001C6.49989 13.5001 5.69529 13.3401 4.94459 13.0291C4.19389 12.7182 3.51178 12.2624 2.93722 11.6878C2.36266 11.1133 1.90689 10.4312 1.59594 9.68047C1.28499 8.92977 1.12494 8.12517 1.12494 7.31261C1.12494 5.67159 1.77684 4.09777 2.93722 2.93739C4.0976 1.77701 5.67142 1.12511 7.31244 1.12511C8.95347 1.12511 10.5273 1.77701 11.6877 2.93739C12.848 4.09777 13.4999 5.67159 13.4999 7.31261Z" fill="#A9ABB8"/>
</g>
<defs>
<clipPath id="clip0_165_303">
<rect width="18" height="18" fill="white"/>
</clipPath>
</defs>
</svg>
