<svg width="20" height="20" viewBox="0 0 20 20" fill="none" xmlns="http://www.w3.org/2000/svg">
<g clip-path="url(#clip0_165_224)">
<path d="M16.0673 0.182503C15.9501 0.0653338 15.7911 -0.000488281 15.6254 -0.000488281C15.4597 -0.000488281 15.3007 0.0653338 15.1835 0.182503L13.1248 2.24125L17.7585 6.875L19.8173 4.8175C19.8755 4.75945 19.9216 4.69048 19.9531 4.61454C19.9847 4.53861 20.0009 4.45721 20.0009 4.375C20.0009 4.29279 19.9847 4.21139 19.9531 4.13546C19.9216 4.05953 19.8755 3.99056 19.8173 3.9325L16.0673 0.182503ZM16.8748 7.75875L12.241 3.125L4.11601 11.25H4.37476C4.54052 11.25 4.69949 11.3158 4.8167 11.4331C4.93391 11.5503 4.99976 11.7092 4.99976 11.875V12.5H5.62476C5.79052 12.5 5.94949 12.5658 6.0667 12.6831C6.18391 12.8003 6.24976 12.9592 6.24976 13.125V13.75H6.87476C7.04052 13.75 7.19949 13.8158 7.3167 13.9331C7.43391 14.0503 7.49976 14.2092 7.49976 14.375V15H8.12476C8.29052 15 8.44949 15.0658 8.5667 15.1831C8.68391 15.3003 8.74976 15.4592 8.74976 15.625V15.8838L16.8748 7.75875ZM7.53976 17.0938C7.51345 17.0238 7.49991 16.9497 7.49976 16.875V16.25H6.87476C6.709 16.25 6.55003 16.1842 6.43282 16.0669C6.31561 15.9497 6.24976 15.7908 6.24976 15.625V15H5.62476C5.459 15 5.30003 14.9342 5.18282 14.8169C5.06561 14.6997 4.99976 14.5408 4.99976 14.375V13.75H4.37476C4.209 13.75 4.05003 13.6842 3.93282 13.5669C3.81561 13.4497 3.74976 13.2908 3.74976 13.125V12.5H3.12476C3.05004 12.4999 2.97595 12.4863 2.90601 12.46L2.68226 12.6825C2.62269 12.7425 2.57592 12.8139 2.54476 12.8925L0.0447576 19.1425C-0.000705742 19.2561 -0.0118351 19.3805 0.0127492 19.5004C0.0373335 19.6202 0.0965504 19.7302 0.183059 19.8167C0.269567 19.9032 0.379562 19.9624 0.499407 19.987C0.619252 20.0116 0.743678 20.0005 0.857258 19.955L7.10726 17.455C7.18584 17.4238 7.25728 17.3771 7.31726 17.3175L7.53976 17.0938Z" fill="#734CEB"/>
</g>
<defs>
<clipPath id="clip0_165_224">
<rect width="20" height="20" fill="white"/>
</clipPath>
</defs>
</svg>
