<svg width="21" height="21" viewBox="0 0 21 21" fill="none" xmlns="http://www.w3.org/2000/svg">
<path d="M6.09789 6.09783C6.15885 6.03671 6.23127 5.98823 6.31099 5.95514C6.39072 5.92206 6.47619 5.90503 6.56251 5.90503C6.64883 5.90503 6.7343 5.92206 6.81403 5.95514C6.89376 5.98823 6.96618 6.03671 7.02714 6.09783L10.5 9.57201L13.9729 6.09783C14.0339 6.03681 14.1063 5.98841 14.1861 5.95539C14.2658 5.92237 14.3512 5.90537 14.4375 5.90537C14.5238 5.90537 14.6092 5.92237 14.689 5.95539C14.7687 5.98841 14.8411 6.03681 14.9021 6.09783C14.9632 6.15884 15.0116 6.23128 15.0446 6.311C15.0776 6.39072 15.0946 6.47616 15.0946 6.56245C15.0946 6.64874 15.0776 6.73419 15.0446 6.81391C15.0116 6.89363 14.9632 6.96606 14.9021 7.02708L11.4279 10.5L14.9021 13.9728C14.9632 14.0338 15.0116 14.1063 15.0446 14.186C15.0776 14.2657 15.0946 14.3512 15.0946 14.4375C15.0946 14.5237 15.0776 14.6092 15.0446 14.6889C15.0116 14.7686 14.9632 14.8411 14.9021 14.9021C14.8411 14.9631 14.7687 15.0115 14.689 15.0445C14.6092 15.0775 14.5238 15.0945 14.4375 15.0945C14.3512 15.0945 14.2658 15.0775 14.1861 15.0445C14.1063 15.0115 14.0339 14.9631 13.9729 14.9021L10.5 11.4279L7.02714 14.9021C6.96612 14.9631 6.89369 15.0115 6.81397 15.0445C6.73425 15.0775 6.6488 15.0945 6.56251 15.0945C6.47622 15.0945 6.39078 15.0775 6.31106 15.0445C6.23134 15.0115 6.1589 14.9631 6.09789 14.9021C6.03687 14.8411 5.98847 14.7686 5.95545 14.6889C5.92243 14.6092 5.90543 14.5237 5.90543 14.4375C5.90543 14.3512 5.92243 14.2657 5.95545 14.186C5.98847 14.1063 6.03687 14.0338 6.09789 13.9728L9.57208 10.5L6.09789 7.02708C6.03677 6.96612 5.98829 6.8937 5.9552 6.81397C5.92212 6.73424 5.90509 6.64877 5.90509 6.56245C5.90509 6.47613 5.92212 6.39066 5.9552 6.31093C5.98829 6.2312 6.03677 6.15879 6.09789 6.09783Z" fill="#A9ABB8"/>
</svg>
